<svg width="467" height="89" viewBox="0 0 467 89" fill="none" xmlns="http://www.w3.org/2000/svg">
<path d="M126.363 35.6473V46.891H116.068V78.292H100.771V46.891H94.4956V35.6473H100.771V31.8676C100.771 26.553 101.605 22.0141 103.255 18.218C104.921 14.4383 107.162 11.9503 110.005 10.7408L127.052 8.7063V13.357C123.34 14.2772 120.58 16.0225 118.781 18.5894C116.966 21.1563 116.068 24.6467 116.068 29.0739V35.6473H126.363ZM145.288 56.968C145.288 60.6031 146.073 63.525 147.659 65.7402C149.245 67.9686 151.271 69.0827 153.722 69.0827C156.189 69.0827 158.201 67.9686 159.784 65.7238C161.37 63.4789 162.155 60.5702 162.155 56.968C162.155 53.3987 161.37 50.49 159.784 48.2287C158.198 45.9839 156.189 44.8533 153.722 44.8533C151.271 44.8533 149.242 45.9675 147.659 48.2123C146.073 50.4571 145.288 53.3658 145.288 56.968ZM129.991 56.9351C129.991 50.1679 132.229 44.5772 136.709 40.1862C141.205 35.8083 146.858 33.6128 153.722 33.6128C160.618 33.6128 166.305 35.8083 170.801 40.1862C175.294 44.5805 177.552 50.1679 177.552 56.9351C177.552 63.7189 175.297 69.326 170.801 73.717C166.305 78.1277 160.618 80.3232 153.722 80.3232C146.891 80.3232 141.235 78.1277 136.742 73.717C132.246 69.3227 129.991 63.7189 129.991 56.9351ZM178.513 78.2888L194.97 57.2737L179.51 35.644H197.029L204.218 45.6257L212.013 35.644H226.755L211.245 55.6073L227.539 78.2855H209.871L202.06 67.2521L193.397 78.2855H178.509L178.513 78.2888Z" fill="#077E71"/>
<path d="M231.959 78.2886V34.579H236.86V45.3692C239.607 41.2016 242.108 38.2305 244.379 36.4524C246.65 34.6907 249.005 33.8033 251.472 33.8033C252.813 33.8033 254.103 34.0794 255.363 34.6118C256.62 35.1607 257.947 36.0021 259.317 37.1327L256.637 41.7702C255.297 40.7053 254.07 39.9133 252.975 39.4104C251.865 38.9108 250.801 38.6512 249.79 38.6512C247.811 38.6512 245.803 39.6043 243.757 41.4941C241.716 43.384 239.411 46.4373 236.86 50.6673V78.2886H231.959ZM266.181 56.4814C266.181 61.5528 267.913 65.8649 271.362 69.4047C274.81 72.9412 278.96 74.7028 283.849 74.7028C288.704 74.7028 292.837 72.9412 296.253 69.4047C299.668 65.8682 301.384 61.5528 301.384 56.4814C301.384 51.3608 299.684 47.0322 296.286 43.4957C292.887 39.9428 288.734 38.1647 283.849 38.1647C278.914 38.1647 274.73 39.9428 271.315 43.4957C267.9 47.0322 266.184 51.3608 266.184 56.4814H266.181ZM260.787 56.3828C260.787 50.0363 263.025 44.6559 267.488 40.2288C271.95 35.818 277.407 33.6061 283.862 33.6061C290.237 33.6061 295.661 35.818 300.157 40.2616C304.636 44.6888 306.874 50.0658 306.874 56.3828C306.874 59.3869 306.269 62.2956 305.075 65.1221C303.881 67.9487 302.199 70.4367 300.024 72.5862C297.832 74.7521 295.348 76.3988 292.605 77.4965C289.858 78.6107 286.951 79.1596 283.862 79.1596C277.407 79.1596 271.947 76.9641 267.488 72.5533C263.025 68.1426 260.787 62.7656 260.787 56.3861V56.3828ZM320.781 70.8081C322.154 71.9716 323.741 72.859 325.536 73.4408C327.335 74.0225 329.361 74.3117 331.582 74.3117C336.876 74.3117 341.209 72.5665 344.558 69.0629C347.923 65.5593 349.609 61.0204 349.609 55.4297C349.609 50.3583 348.203 46.1908 345.409 42.9436C342.599 39.6963 339.034 38.0661 334.688 38.0661C332.074 38.0661 329.62 38.7136 327.302 40.0053C324.998 41.2969 322.823 43.2361 320.781 45.8194V70.8081ZM316.076 75.7842V12.0947H320.781V40.1992C323.169 37.8887 325.619 36.1927 328.137 35.1278C330.638 34.0465 333.384 33.5141 336.391 33.5141C341.881 33.5141 346.393 35.5321 349.905 39.5714C353.437 43.6108 355.199 48.8103 355.199 55.1602C355.199 62.2824 352.961 68.0835 348.498 72.5073C344.019 76.9476 338.186 79.1629 330.963 79.1629C328.676 79.1629 326.305 78.8868 323.854 78.3379C321.419 77.7726 318.819 76.9312 316.076 75.7842ZM366.396 56.4814C366.396 61.5528 368.128 65.8649 371.577 69.4047C375.025 72.9412 379.176 74.7028 384.064 74.7028C388.919 74.7028 393.053 72.9412 396.468 69.4047C399.883 65.8682 401.599 61.5528 401.599 56.4814C401.599 51.3608 399.9 47.0322 396.501 43.4957C393.103 39.9428 388.952 38.1647 384.064 38.1647C379.129 38.1647 374.946 39.9428 371.53 43.4957C368.115 47.0322 366.399 51.3608 366.399 56.4814H366.396ZM361.002 56.3828C361.002 50.0363 363.24 44.6559 367.703 40.2288C372.166 35.818 377.623 33.6061 384.077 33.6061C390.452 33.6061 395.876 35.818 400.372 40.2616C404.851 44.6888 407.089 50.0658 407.089 56.3828C407.089 59.3869 406.484 62.2956 405.29 65.1221C404.096 67.9487 402.414 70.4367 400.239 72.5862C398.047 74.7521 395.563 76.3988 392.82 77.4965C390.073 78.6107 387.167 79.1596 384.077 79.1596C377.623 79.1596 372.162 76.9641 367.703 72.5533C363.24 68.1426 361.002 62.7656 361.002 56.3861V56.3828ZM422.862 67.5609C422.862 70.486 423.271 72.4383 424.089 73.375C424.89 74.3282 426.344 74.7949 428.452 74.7949C429.529 74.7949 430.657 74.6174 431.834 74.246C433.028 73.891 434.335 73.3257 435.804 72.5665V77.3486C434.431 77.9632 433.091 78.4135 431.767 78.706C430.444 79.0117 429.104 79.1596 427.763 79.1596C424.102 79.1596 421.505 78.2886 420.015 76.5598C418.512 74.8146 417.761 71.7941 417.761 67.4656V38.6479H408.33V34.579H417.957V24.5973L421.698 20.3345H422.858V34.5822H434.707V38.6512H422.858V67.5642L422.862 67.5609ZM439.156 70.3381C441.394 71.8237 443.586 72.9215 445.757 73.6347C447.932 74.3446 450.137 74.6996 452.375 74.6996C455.202 74.6996 457.443 74.0356 459.076 72.7111C460.695 71.3866 461.51 69.5789 461.51 67.2684C461.51 63.8929 458.55 61.1288 452.618 58.9826C451.081 58.4173 449.888 57.9802 449.023 57.6581C445.771 56.3993 443.32 54.7658 441.7 52.7642C440.068 50.7626 439.249 48.3863 439.249 45.6419C439.249 42.1055 440.556 39.2132 443.157 36.9684C445.754 34.7236 449.139 33.6094 453.289 33.6094C455.168 33.6094 457.114 33.915 459.109 34.5132C461.104 35.1114 463.179 36.0481 465.321 37.3069V42.329C463.083 40.9091 460.941 39.8409 458.899 39.131C456.858 38.4211 454.879 38.0661 452.967 38.0661C450.353 38.0661 448.195 38.7596 446.496 40.1663C444.813 41.573 443.962 43.3643 443.962 45.5466C443.962 47.4693 444.73 49.0831 446.283 50.3912C447.836 51.6993 450.712 53.0896 454.912 54.5423C459.392 56.0772 462.461 57.7731 464.114 59.5808C465.78 61.3885 466.614 63.7812 466.614 66.7523C466.614 70.6306 465.308 73.6971 462.707 75.9123C460.093 78.1407 456.512 79.2549 451.986 79.2549C449.681 79.2549 447.493 78.9328 445.398 78.3018C443.307 77.6707 441.231 76.7011 439.156 75.4095V70.3381Z" fill="#FEFEFE"/>
<path d="M19.5468 25.6559C26.354 28.5087 25.8984 28.4791 35.4524 26.2869C40.1279 25.2122 47.5104 23.5951 51.3247 26.4743L45.9375 28.0157C47.1612 29.0247 47.9826 28.8045 49.6753 28.9689C50.8292 29.0806 51.9399 29.3238 53.147 29.7051C54.6102 30.1685 57.2805 31.3221 57.899 32.4593L52.7646 32.5612C53.8021 33.7608 55.099 34.1651 56.6753 35.3417C60.7157 38.3556 61.3542 44.2125 61.1779 49.2641C59.8777 48.5049 61.1181 49.3726 60.29 48.5444L59.1494 47.0358C58.7869 46.5592 58.0986 45.892 57.8226 45.3957C58.1485 53.9641 59.1161 53.7077 56.2363 61.8423C55.1655 59.8867 55.6511 57.2114 53.5727 55.7323C53.5294 62.6015 48.0292 71.5347 44.5641 73.7434C38.8011 71.5183 34.5279 66.8578 33.1346 59.3313C31.5217 61.3953 31.2025 65.2013 30.6106 68.0969C28.8348 66.276 27.6942 63.0978 27.8238 59.8374C27.9635 56.2878 29.9355 54.3092 31.2058 51.8278C26.6001 52.9847 23.4842 55.6798 20.5079 57.7307C21.8015 50.1023 31.811 46.1352 36.5165 42.2635C37.9398 41.0902 37.5574 40.6925 39.0272 40.8765L38.9674 45.399C40.088 44.5412 40.3408 43.9627 40.8063 42.0367C41.2087 40.3704 41.1688 39.2759 41.0624 37.5537C43.7992 38.1289 44.7436 39.2036 46.2567 40.6497C48.079 42.3884 47.9327 43.3908 49.08 45.6554C49.3992 43.5749 49.1399 42.6513 48.8239 40.7582C49.6121 41.2611 49.519 41.3597 50.4401 41.8691C47.0748 29.9023 19.3307 37.8495 19.5468 25.6592V25.6559ZM35.0334 18.9116L33.9094 23.8186C33.9094 23.8186 39.0937 19.8779 42.4657 20.2723C39.0937 19.8779 42.755 19.0529 35.0334 18.9116ZM40.1911 3.79284C42.8614 4.8873 44.7037 7.85847 45.4786 10.5864L43.8291 9.36377L42.6021 10.1263C42.5455 10.0375 42.4125 10.3038 42.3892 10.3761L41.6975 8.18385C41.089 10.1164 40.6567 10.9217 39.7655 12.2265L40.1878 3.79284H40.1911ZM36.47 0C38.4153 7.12882 36.1407 12.1706 32.4894 16.6043C30.0552 19.5624 26.3474 22.1523 22.553 23.4111L19.2376 24.3182C17.9905 24.7553 18.915 24.3379 18.2266 24.7915C16.7335 35.7756 29.1474 34.8586 37.5873 37.0607C29.9056 43.8707 15.819 48.6824 14.3958 58.5622C15.4466 59.5285 17.2989 60.8004 18.6124 61.7273L42.8781 79.0547L59.7513 67.3311C62.8041 65.2144 62.6744 65.9309 63.519 61.7996C64.5067 63.1898 63.5855 63.364 64.8093 63.788C68.2046 60.291 67.6991 52.3668 67.6027 47.4828C67.9718 48.7449 69.6079 50.6084 70.7685 51.2723C70.6055 45.4384 69.8905 40.916 67.6027 36.7484C68.6103 37.8528 69.3452 38.5233 71.0212 38.9965C70.3461 32.3016 68.577 30.5366 65.6007 26.4578L66.5053 25.9813C66.5784 25.9484 66.7148 25.8958 66.7813 25.8662C67.729 25.4587 66.9675 25.9352 67.4863 25.623C62.8174 17.8237 57.1109 15.0465 49.213 11.8156C46.5992 10.7475 48.1589 9.88307 45.1527 5.45919C43.6762 3.28669 40.3541 0.377969 36.47 0Z" fill="#077E71"/>
<path d="M31.0995 16.0227C33.3242 15.2175 35.549 10.5143 35.8083 7.70414C33.8829 6.25143 31.5152 5.85702 28.7451 5.58423C30.4378 9.93252 30.8235 7.28016 31.0995 16.0227Z" fill="#077E71"/>
<path d="M29.2638 15.7627L6.71737 22.3032L10.3321 58.207L42.8748 81.4307L75.5272 58.1215L79.0854 22.2966L67.4198 19.0363C67.4198 19.0363 62.5015 17.7577 60.3998 15.2138C60.3998 15.2138 57.0844 12.7685 54.567 11.8187L50.4534 10.149C50.4534 10.149 49.1698 9.86968 49.0069 8.39725L48.6976 7.18774L85.7695 17.8399L81.3533 62.3055L42.8715 89L4.63898 62.4271L0 18.0437L28.6486 10.0209L29.2571 15.766L29.2638 15.7627Z" fill="#077E71"/>
</svg>
